<mxfile host="app.diagrams.net" modified="2023-10-23T15:09:49.789Z" agent="Mozilla/5.0 (Windows NT 10.0; Win64; x64) AppleWebKit/537.36 (KHTML, like Gecko) Chrome/118.0.0.0 Safari/537.36" etag="dFY0FKcEwMqHW_fmx2-m" version="22.0.6" type="github">
  <diagram id="C5RBs43oDa-KdzZeNtuy" name="Page-1">
    <mxGraphModel dx="819" dy="433" grid="1" gridSize="10" guides="1" tooltips="1" connect="1" arrows="1" fold="1" page="1" pageScale="1" pageWidth="827" pageHeight="1169" math="0" shadow="0">
      <root>
        <mxCell id="WIyWlLk6GJQsqaUBKTNV-0" />
        <mxCell id="WIyWlLk6GJQsqaUBKTNV-1" parent="WIyWlLk6GJQsqaUBKTNV-0" />
        <mxCell id="pagteGiefD8Yf4r841vS-0" value="&lt;h1&gt;&lt;span style=&quot;background-color: initial;&quot;&gt;ToQuotate&lt;/span&gt;&lt;br&gt;&lt;/h1&gt;" style="text;html=1;strokeColor=none;fillColor=none;spacing=5;spacingTop=-20;whiteSpace=wrap;overflow=hidden;rounded=0;" vertex="1" parent="WIyWlLk6GJQsqaUBKTNV-1">
          <mxGeometry x="10" y="10" width="140" height="40" as="geometry" />
        </mxCell>
        <mxCell id="pagteGiefD8Yf4r841vS-3" value="" style="endArrow=classic;html=1;rounded=0;" edge="1" parent="WIyWlLk6GJQsqaUBKTNV-1">
          <mxGeometry width="50" height="50" relative="1" as="geometry">
            <mxPoint x="403.5" y="60" as="sourcePoint" />
            <mxPoint x="404" y="60" as="targetPoint" />
          </mxGeometry>
        </mxCell>
        <mxCell id="pagteGiefD8Yf4r841vS-5" value="URL, Industry, DataFieldsList" style="shape=parallelogram;html=1;strokeWidth=2;perimeter=parallelogramPerimeter;whiteSpace=wrap;rounded=1;arcSize=12;size=0.23;" vertex="1" parent="WIyWlLk6GJQsqaUBKTNV-1">
          <mxGeometry x="160" y="70" width="240" height="70" as="geometry" />
        </mxCell>
        <mxCell id="pagteGiefD8Yf4r841vS-10" style="edgeStyle=orthogonalEdgeStyle;rounded=0;orthogonalLoop=1;jettySize=auto;html=1;" edge="1" parent="WIyWlLk6GJQsqaUBKTNV-1" source="pagteGiefD8Yf4r841vS-6" target="pagteGiefD8Yf4r841vS-8">
          <mxGeometry relative="1" as="geometry" />
        </mxCell>
        <mxCell id="pagteGiefD8Yf4r841vS-11" value="Security, framework, DataFieldsList" style="edgeLabel;html=1;align=center;verticalAlign=middle;resizable=0;points=[];" vertex="1" connectable="0" parent="pagteGiefD8Yf4r841vS-10">
          <mxGeometry x="-0.05" y="-1" relative="1" as="geometry">
            <mxPoint as="offset" />
          </mxGeometry>
        </mxCell>
        <mxCell id="pagteGiefD8Yf4r841vS-12" value="" style="edgeStyle=orthogonalEdgeStyle;rounded=0;orthogonalLoop=1;jettySize=auto;html=1;" edge="1" parent="WIyWlLk6GJQsqaUBKTNV-1" source="pagteGiefD8Yf4r841vS-6" target="pagteGiefD8Yf4r841vS-8">
          <mxGeometry relative="1" as="geometry" />
        </mxCell>
        <mxCell id="pagteGiefD8Yf4r841vS-6" value="URLAnalyzer" style="shape=process;whiteSpace=wrap;html=1;backgroundOutline=1;" vertex="1" parent="WIyWlLk6GJQsqaUBKTNV-1">
          <mxGeometry x="210" y="200" width="120" height="60" as="geometry" />
        </mxCell>
        <mxCell id="pagteGiefD8Yf4r841vS-16" value="URL, Security, framework, DataFieldsList" style="edgeStyle=orthogonalEdgeStyle;rounded=0;orthogonalLoop=1;jettySize=auto;html=1;entryX=0.5;entryY=0;entryDx=0;entryDy=0;" edge="1" parent="WIyWlLk6GJQsqaUBKTNV-1" source="pagteGiefD8Yf4r841vS-8" target="pagteGiefD8Yf4r841vS-15">
          <mxGeometry relative="1" as="geometry" />
        </mxCell>
        <mxCell id="pagteGiefD8Yf4r841vS-8" value="MiddleAPI" style="shape=process;whiteSpace=wrap;html=1;backgroundOutline=1;" vertex="1" parent="WIyWlLk6GJQsqaUBKTNV-1">
          <mxGeometry x="210" y="320" width="120" height="60" as="geometry" />
        </mxCell>
        <mxCell id="pagteGiefD8Yf4r841vS-9" value="URL, Industry," style="endArrow=classic;html=1;rounded=0;entryX=0.5;entryY=0;entryDx=0;entryDy=0;" edge="1" parent="WIyWlLk6GJQsqaUBKTNV-1" target="pagteGiefD8Yf4r841vS-6">
          <mxGeometry width="50" height="50" relative="1" as="geometry">
            <mxPoint x="270" y="140" as="sourcePoint" />
            <mxPoint x="320" y="90" as="targetPoint" />
            <Array as="points" />
          </mxGeometry>
        </mxCell>
        <mxCell id="pagteGiefD8Yf4r841vS-13" value="Esta funcion tiene que ser parecida a wappalyzer. La clave es que busque la proteccion antibot y nos diga el framework en el caso de que la industria sea ecommerce" style="text;strokeColor=none;align=left;fillColor=none;html=1;verticalAlign=middle;whiteSpace=wrap;rounded=0;" vertex="1" parent="WIyWlLk6GJQsqaUBKTNV-1">
          <mxGeometry x="360" y="210" width="540" height="40" as="geometry" />
        </mxCell>
        <mxCell id="pagteGiefD8Yf4r841vS-14" value="Esta funcion tiene que verificar si se cuenta con una API intermedia que tenga alguno o todos los datos" style="text;html=1;align=center;verticalAlign=middle;resizable=0;points=[];autosize=1;strokeColor=none;fillColor=none;" vertex="1" parent="WIyWlLk6GJQsqaUBKTNV-1">
          <mxGeometry x="350" y="330" width="570" height="30" as="geometry" />
        </mxCell>
        <mxCell id="pagteGiefD8Yf4r841vS-21" value="CrawlingStrategy, URL, Security, Framework, DataFieldsList" style="edgeStyle=orthogonalEdgeStyle;rounded=0;orthogonalLoop=1;jettySize=auto;html=1;" edge="1" parent="WIyWlLk6GJQsqaUBKTNV-1" source="pagteGiefD8Yf4r841vS-15" target="pagteGiefD8Yf4r841vS-18">
          <mxGeometry relative="1" as="geometry" />
        </mxCell>
        <mxCell id="pagteGiefD8Yf4r841vS-15" value="CrawlingStrategy" style="shape=process;whiteSpace=wrap;html=1;backgroundOutline=1;" vertex="1" parent="WIyWlLk6GJQsqaUBKTNV-1">
          <mxGeometry x="180" y="450" width="180" height="60" as="geometry" />
        </mxCell>
        <mxCell id="pagteGiefD8Yf4r841vS-17" value="Esta funcion tiene que definir la estrategia de Crawling: Selenium - Requests|API - hibrido" style="text;html=1;align=center;verticalAlign=middle;resizable=0;points=[];autosize=1;strokeColor=none;fillColor=none;" vertex="1" parent="WIyWlLk6GJQsqaUBKTNV-1">
          <mxGeometry x="380" y="465" width="500" height="30" as="geometry" />
        </mxCell>
        <mxCell id="pagteGiefD8Yf4r841vS-23" style="edgeStyle=orthogonalEdgeStyle;rounded=0;orthogonalLoop=1;jettySize=auto;html=1;entryX=0.5;entryY=0;entryDx=0;entryDy=0;" edge="1" parent="WIyWlLk6GJQsqaUBKTNV-1" source="pagteGiefD8Yf4r841vS-18" target="pagteGiefD8Yf4r841vS-22">
          <mxGeometry relative="1" as="geometry" />
        </mxCell>
        <mxCell id="pagteGiefD8Yf4r841vS-18" value="ScrapingStrategy" style="shape=process;whiteSpace=wrap;html=1;backgroundOutline=1;" vertex="1" parent="WIyWlLk6GJQsqaUBKTNV-1">
          <mxGeometry x="180" y="580" width="180" height="60" as="geometry" />
        </mxCell>
        <mxCell id="pagteGiefD8Yf4r841vS-19" value="Tiene que definir la estrategia de scraping, en funcion de la estrategia de crawling" style="text;html=1;align=center;verticalAlign=middle;resizable=0;points=[];autosize=1;strokeColor=none;fillColor=none;" vertex="1" parent="WIyWlLk6GJQsqaUBKTNV-1">
          <mxGeometry x="380" y="595" width="460" height="30" as="geometry" />
        </mxCell>
        <mxCell id="pagteGiefD8Yf4r841vS-20" value="&lt;div style=&quot;text-align: left;&quot;&gt;&lt;span style=&quot;background-color: initial;&quot;&gt;URL: Una lista de URLs de ejemplos. Sobre todo si son dos niveles, debe haber ejemplos de 1er y 2do nivel&lt;/span&gt;&lt;/div&gt;&lt;div style=&quot;text-align: left;&quot;&gt;&lt;span style=&quot;background-color: initial;&quot;&gt;Industry: La industria a la que pertenece el analisis. Ecommerce tiene un tratamiento diferente.&lt;/span&gt;&lt;/div&gt;&lt;div style=&quot;text-align: left;&quot;&gt;&lt;span style=&quot;background-color: initial;&quot;&gt;DataFieldsList: Es el listado de campos de datos objetivos.&lt;/span&gt;&lt;/div&gt;" style="text;html=1;align=center;verticalAlign=middle;resizable=0;points=[];autosize=1;strokeColor=none;fillColor=none;" vertex="1" parent="WIyWlLk6GJQsqaUBKTNV-1">
          <mxGeometry x="390" y="75" width="600" height="60" as="geometry" />
        </mxCell>
        <mxCell id="pagteGiefD8Yf4r841vS-33" style="edgeStyle=orthogonalEdgeStyle;rounded=0;orthogonalLoop=1;jettySize=auto;html=1;" edge="1" parent="WIyWlLk6GJQsqaUBKTNV-1" source="pagteGiefD8Yf4r841vS-22" target="pagteGiefD8Yf4r841vS-25">
          <mxGeometry relative="1" as="geometry" />
        </mxCell>
        <mxCell id="pagteGiefD8Yf4r841vS-41" style="edgeStyle=orthogonalEdgeStyle;rounded=0;orthogonalLoop=1;jettySize=auto;html=1;entryX=0.5;entryY=0;entryDx=0;entryDy=0;" edge="1" parent="WIyWlLk6GJQsqaUBKTNV-1" source="pagteGiefD8Yf4r841vS-22" target="pagteGiefD8Yf4r841vS-40">
          <mxGeometry relative="1" as="geometry" />
        </mxCell>
        <mxCell id="pagteGiefD8Yf4r841vS-22" value="que se entrega?" style="rhombus;whiteSpace=wrap;html=1;" vertex="1" parent="WIyWlLk6GJQsqaUBKTNV-1">
          <mxGeometry x="230" y="680" width="80" height="80" as="geometry" />
        </mxCell>
        <mxCell id="pagteGiefD8Yf4r841vS-25" value="SourceCode" style="rounded=1;whiteSpace=wrap;html=1;" vertex="1" parent="WIyWlLk6GJQsqaUBKTNV-1">
          <mxGeometry x="414" y="670" width="100" height="40" as="geometry" />
        </mxCell>
        <mxCell id="pagteGiefD8Yf4r841vS-26" value="CSV - Excel - JSON" style="rounded=1;whiteSpace=wrap;html=1;" vertex="1" parent="WIyWlLk6GJQsqaUBKTNV-1">
          <mxGeometry x="414" y="730" width="120" height="40" as="geometry" />
        </mxCell>
        <mxCell id="pagteGiefD8Yf4r841vS-27" value="Github" style="text;html=1;align=center;verticalAlign=middle;resizable=0;points=[];autosize=1;strokeColor=none;fillColor=none;" vertex="1" parent="WIyWlLk6GJQsqaUBKTNV-1">
          <mxGeometry x="534" y="670" width="60" height="30" as="geometry" />
        </mxCell>
        <mxCell id="pagteGiefD8Yf4r841vS-28" value="deployment" style="rounded=1;whiteSpace=wrap;html=1;" vertex="1" parent="WIyWlLk6GJQsqaUBKTNV-1">
          <mxGeometry x="414" y="790" width="100" height="40" as="geometry" />
        </mxCell>
        <mxCell id="pagteGiefD8Yf4r841vS-29" value="docker?" style="text;html=1;align=center;verticalAlign=middle;resizable=0;points=[];autosize=1;strokeColor=none;fillColor=none;" vertex="1" parent="WIyWlLk6GJQsqaUBKTNV-1">
          <mxGeometry x="534" y="790" width="70" height="30" as="geometry" />
        </mxCell>
        <mxCell id="pagteGiefD8Yf4r841vS-31" value="BD-DataLake del cliente" style="rounded=1;whiteSpace=wrap;html=1;" vertex="1" parent="WIyWlLk6GJQsqaUBKTNV-1">
          <mxGeometry x="414" y="850" width="100" height="40" as="geometry" />
        </mxCell>
        <mxCell id="pagteGiefD8Yf4r841vS-32" value="AS-Platform" style="rounded=1;whiteSpace=wrap;html=1;" vertex="1" parent="WIyWlLk6GJQsqaUBKTNV-1">
          <mxGeometry x="414" y="910" width="100" height="40" as="geometry" />
        </mxCell>
        <mxCell id="pagteGiefD8Yf4r841vS-34" style="edgeStyle=orthogonalEdgeStyle;rounded=0;orthogonalLoop=1;jettySize=auto;html=1;" edge="1" parent="WIyWlLk6GJQsqaUBKTNV-1" source="pagteGiefD8Yf4r841vS-22" target="pagteGiefD8Yf4r841vS-26">
          <mxGeometry relative="1" as="geometry" />
        </mxCell>
        <mxCell id="pagteGiefD8Yf4r841vS-36" style="edgeStyle=orthogonalEdgeStyle;rounded=0;orthogonalLoop=1;jettySize=auto;html=1;entryX=0;entryY=0.5;entryDx=0;entryDy=0;exitX=1;exitY=0.5;exitDx=0;exitDy=0;" edge="1" parent="WIyWlLk6GJQsqaUBKTNV-1" source="pagteGiefD8Yf4r841vS-22" target="pagteGiefD8Yf4r841vS-28">
          <mxGeometry relative="1" as="geometry">
            <mxPoint x="310" y="780" as="sourcePoint" />
            <mxPoint x="410" y="810" as="targetPoint" />
            <Array as="points">
              <mxPoint x="360" y="720" />
              <mxPoint x="360" y="810" />
            </Array>
          </mxGeometry>
        </mxCell>
        <mxCell id="pagteGiefD8Yf4r841vS-37" style="edgeStyle=orthogonalEdgeStyle;rounded=0;orthogonalLoop=1;jettySize=auto;html=1;entryX=0;entryY=0.5;entryDx=0;entryDy=0;" edge="1" parent="WIyWlLk6GJQsqaUBKTNV-1">
          <mxGeometry relative="1" as="geometry">
            <mxPoint x="320" y="720" as="sourcePoint" />
            <mxPoint x="414" y="880" as="targetPoint" />
            <Array as="points">
              <mxPoint x="310" y="720" />
              <mxPoint x="310" y="790" />
              <mxPoint x="360" y="790" />
              <mxPoint x="360" y="880" />
            </Array>
          </mxGeometry>
        </mxCell>
        <mxCell id="pagteGiefD8Yf4r841vS-38" style="edgeStyle=orthogonalEdgeStyle;rounded=0;orthogonalLoop=1;jettySize=auto;html=1;entryX=0;entryY=0.5;entryDx=0;entryDy=0;" edge="1" parent="WIyWlLk6GJQsqaUBKTNV-1">
          <mxGeometry relative="1" as="geometry">
            <mxPoint x="319.97" y="780" as="sourcePoint" />
            <mxPoint x="413.97" y="940" as="targetPoint" />
            <Array as="points">
              <mxPoint x="309.97" y="780" />
              <mxPoint x="309.97" y="850" />
              <mxPoint x="359.97" y="850" />
              <mxPoint x="359.97" y="940" />
            </Array>
          </mxGeometry>
        </mxCell>
        <mxCell id="pagteGiefD8Yf4r841vS-40" value="es one-time?" style="rhombus;whiteSpace=wrap;html=1;" vertex="1" parent="WIyWlLk6GJQsqaUBKTNV-1">
          <mxGeometry x="230" y="960" width="80" height="80" as="geometry" />
        </mxCell>
      </root>
    </mxGraphModel>
  </diagram>
</mxfile>
